<svg width="32" height="32" viewBox="0 0 32 32" fill="none" xmlns="http://www.w3.org/2000/svg">
<g id="Instagram logo" clip-path="url(#clip0_1_216)">
<g id="Group">
<path id="Vector" d="M16.0142 7.84727C15.7328 7.84727 15.4545 7.86162 15.1802 7.88971C14.906 7.9178 14.6356 7.95942 14.3698 8.01406C14.1039 8.0687 13.8428 8.13636 13.587 8.21622L12.8359 8.49199L12.1209 8.83726L11.4461 9.24784L10.8157 9.71941L10.2339 10.2479L9.7049 10.8291L9.23281 11.4589L8.82173 12.133L8.47625 12.8473C8.3724 13.0916 8.28003 13.342 8.20007 13.5977C8.12011 13.8533 8.05245 14.1144 7.99771 14.3799C7.94296 14.6454 7.90134 14.9155 7.87315 15.1895C7.84496 15.4636 7.83081 15.7416 7.83081 16.0227C7.83081 16.3038 7.84516 16.5818 7.87315 16.8558C7.90098 17.1277 7.94255 17.3979 7.99771 17.6656C8.05245 17.9321 8.12011 18.1921 8.20007 18.4478C8.28003 18.7035 8.3723 18.9538 8.47625 19.1982L8.82173 19.9124L9.23281 20.5865L9.7049 21.2163L10.2339 21.7976L10.8157 22.326L11.4461 22.7976L12.1209 23.2082L12.8359 23.5535L13.587 23.8292L14.3698 24.0314C14.6377 24.0865 14.9082 24.128 15.1802 24.1558C15.4573 24.1841 15.7357 24.1982 16.0142 24.1982C16.2956 24.1982 16.5739 24.1838 16.8481 24.1558C17.1202 24.128 17.3907 24.0865 17.6586 24.0314L18.4415 23.8292L19.1925 23.5535L19.9074 23.2082L20.5823 22.7976L21.2128 22.326L21.7947 21.7976L22.3236 21.2163L22.7957 20.5865L23.2068 19.9124L23.5523 19.1982L23.8285 18.4478C23.9084 18.1921 23.9761 17.9311 24.0308 17.6656L24.1554 16.8557C24.1835 16.5817 24.1978 16.3037 24.1978 16.0226C24.1978 15.7415 24.1835 15.4635 24.1554 15.1894C24.1275 14.9176 24.086 14.6474 24.0308 14.3798C23.9761 14.1132 23.9084 13.8533 23.8285 13.5976L23.5523 12.8472L23.2068 12.1329L22.7957 11.4588L22.3236 10.829L21.7947 10.2478L21.2128 9.71931L20.5823 9.24773L19.9074 8.83716L19.1925 8.49189L18.4415 8.21612L17.6586 8.01396L16.8481 7.88961C16.571 7.86131 16.2927 7.84715 16.0142 7.84717V7.84727ZM16.0142 10.6691C16.2003 10.6691 16.3839 10.6783 16.5647 10.6966L17.0978 10.7773L17.6127 10.9085L18.1058 11.0876L18.5746 11.3121L19.0155 11.5791L19.4276 11.8864L19.8075 12.231L20.1525 12.6105L20.46 13.0223L20.7274 13.4637L20.9519 13.9322C21.0193 14.0925 21.0792 14.2568 21.1313 14.4249C21.1834 14.5929 21.2271 14.7646 21.2625 14.9395C21.2979 15.1144 21.324 15.2924 21.3432 15.4731L21.3706 16.0232C21.3706 16.2091 21.3614 16.3926 21.3432 16.5734C21.3249 16.7542 21.2981 16.9322 21.2625 17.107C21.2269 17.2818 21.183 17.4535 21.1313 17.6216L20.9519 18.1143L20.7274 18.5828L20.46 19.0241L20.1525 19.4359L19.8075 19.8154L19.4276 20.1601L19.0155 20.4673L18.5746 20.7344L18.1058 20.9589L17.6127 21.138L17.0978 21.2692L16.5647 21.3498C16.3818 21.3681 16.198 21.3773 16.0141 21.3773C15.8302 21.3773 15.6464 21.3681 15.4634 21.3498L14.9303 21.2692C14.7553 21.2337 14.5835 21.1899 14.4153 21.138L13.9222 20.9589L13.4534 20.7344L13.0126 20.4673L12.6004 20.1601L12.2205 19.8154L11.8756 19.4359L11.568 19.0241L11.3007 18.5828L11.0761 18.1143L10.8967 17.6216L10.7655 17.107L10.6848 16.5734C10.6665 16.3906 10.6573 16.2069 10.6574 16.0232C10.6573 15.8395 10.6665 15.6559 10.6848 15.4731C10.703 15.2924 10.7299 15.1143 10.7655 14.9395C10.8007 14.7659 10.8446 14.5942 10.8968 14.425L11.0762 13.9323L11.3008 13.4638L11.5681 13.0224L11.8757 12.6107L12.2206 12.2311L12.6005 11.8865L13.0127 11.5792L13.4535 11.3122L13.9223 11.0877C14.0836 11.0199 14.2482 10.9602 14.4155 10.9086L14.9305 10.7774C15.1055 10.7419 15.2837 10.7148 15.4636 10.6967C15.6466 10.6784 15.8304 10.6692 16.0143 10.6692L16.0142 10.6691Z" fill="#2A2C3D"/>
<path id="Vector_2" d="M24.5295 5.52173C24.4645 5.52174 24.3996 5.52503 24.3349 5.53157C24.2703 5.5381 24.206 5.54789 24.1423 5.56089C24.0786 5.57388 24.0156 5.59006 23.9536 5.60938C23.8915 5.62871 23.8304 5.65116 23.7706 5.67663C23.7107 5.70213 23.6522 5.73063 23.5952 5.76202C23.5382 5.79335 23.4827 5.82754 23.4291 5.86444C23.3755 5.90138 23.3237 5.941 23.274 5.98315C23.2243 6.02526 23.1768 6.06984 23.1315 6.11673C23.0862 6.16365 23.0433 6.21281 23.0029 6.26404C22.9626 6.31528 22.9248 6.36852 22.8897 6.42356C22.8546 6.47855 22.8223 6.53528 22.7928 6.59353C22.7633 6.65182 22.7367 6.71156 22.7131 6.77252C22.6896 6.83347 22.6691 6.89557 22.6517 6.95859C22.6344 7.0216 22.6201 7.08544 22.6091 7.14988C22.598 7.2143 22.5902 7.27924 22.5856 7.34445C22.5823 7.39065 22.5807 7.43695 22.5807 7.48326C22.5807 7.54869 22.5839 7.61407 22.5904 7.67917C22.5969 7.74423 22.6066 7.80893 22.6195 7.87302C22.6324 7.93711 22.6485 8.00051 22.6677 8.06299C22.6869 8.12548 22.7092 8.18696 22.7346 8.24721C22.7599 8.30747 22.7882 8.36642 22.8193 8.42384C22.8505 8.48125 22.8845 8.53705 22.9211 8.59104C22.9578 8.645 22.9972 8.69707 23.039 8.74707C23.0809 8.79711 23.1252 8.84501 23.1718 8.89059C23.2184 8.93615 23.2673 8.97933 23.3182 9.01997C23.3691 9.06064 23.422 9.09872 23.4767 9.13407C23.5314 9.16942 23.5878 9.20199 23.6457 9.23166C23.7036 9.26135 23.7629 9.28811 23.8235 9.31183C23.884 9.33552 23.9457 9.35615 24.0083 9.37365C24.0709 9.39111 24.1344 9.40541 24.1984 9.4165C24.2624 9.42763 24.3269 9.43553 24.3917 9.44018C24.4376 9.44346 24.4836 9.4451 24.5296 9.4451C24.5946 9.44512 24.6595 9.44187 24.7242 9.43536C24.7888 9.42883 24.8531 9.41904 24.9168 9.40604C24.9805 9.39305 25.0435 9.37687 25.1055 9.35755C25.1676 9.33822 25.2287 9.31577 25.2885 9.2903C25.3484 9.26483 25.4069 9.23636 25.4639 9.20501C25.521 9.17364 25.5764 9.13943 25.63 9.10249C25.6836 9.06558 25.7354 9.026 25.7851 8.98388C25.8348 8.94174 25.8824 8.89713 25.9276 8.8502C25.9729 8.80329 26.0158 8.75412 26.0562 8.70289C26.0965 8.65165 26.1344 8.59841 26.1694 8.54337C26.2045 8.48834 26.2369 8.43158 26.2663 8.3733C26.2958 8.31501 26.3224 8.25527 26.346 8.19431C26.3695 8.13336 26.39 8.07126 26.4074 8.00824C26.4248 7.94523 26.439 7.88139 26.45 7.81695C26.4611 7.75253 26.4689 7.68758 26.4735 7.62237C26.4768 7.57618 26.4784 7.52988 26.4784 7.48357C26.4784 7.41818 26.4752 7.35283 26.4687 7.28776C26.4622 7.2227 26.4525 7.158 26.4396 7.09391C26.4267 7.02982 26.4106 6.96642 26.3914 6.90395C26.3722 6.84145 26.3499 6.77997 26.3246 6.71973C26.2992 6.65946 26.2709 6.60051 26.2398 6.54309C26.2086 6.48568 26.1747 6.42988 26.138 6.37589C26.1013 6.3219 26.0619 6.26979 26.02 6.21976C25.9782 6.16972 25.9339 6.12182 25.8873 6.07623C25.8407 6.03068 25.7918 5.9875 25.7409 5.94686C25.69 5.90623 25.6371 5.86818 25.5824 5.83286C25.5277 5.79751 25.4713 5.76494 25.4134 5.73527C25.3555 5.70558 25.2962 5.67882 25.2356 5.6551C25.1751 5.63141 25.1134 5.61078 25.0508 5.59328C24.9882 5.57579 24.9248 5.56145 24.8607 5.55033C24.7967 5.53923 24.7322 5.53136 24.6674 5.52675C24.6215 5.52347 24.5755 5.52183 24.5295 5.52183V5.52173Z" fill="#2A2C3D"/>
<path id="Vector_3" d="M14.4623 0.0288626C13.5723 0.0274274 12.778 0.0311174 12.0645 0.0411639L10.1516 0.0924217C9.58485 0.117025 9.08416 0.14911 8.63473 0.190629C8.41002 0.211337 8.19802 0.234506 7.99709 0.260032C7.80588 0.284132 7.6152 0.312194 7.42515 0.344199C7.24421 0.374954 7.0725 0.408167 6.90786 0.444252C6.74322 0.480338 6.58596 0.519295 6.43424 0.561122C6.28592 0.602022 6.13875 0.64701 5.99291 0.696033C5.85 0.744215 5.71058 0.795268 5.5729 0.849806C5.29755 0.958883 5.02896 1.08128 4.75237 1.21845C4.53955 1.32404 4.34292 1.43096 4.15614 1.54414C3.96936 1.65732 3.79241 1.77685 3.61916 1.90705C3.44074 2.04178 3.26877 2.18485 3.10382 2.33577C2.93139 2.49282 2.75526 2.66556 2.57227 2.8586C2.34233 3.09982 2.14253 3.32474 1.96518 3.54545C1.8765 3.65576 1.79346 3.76483 1.71525 3.87453C1.63789 3.98263 1.56394 4.09312 1.4935 4.20585C1.42379 4.3176 1.35777 4.43139 1.29462 4.54846C1.23049 4.66755 1.16988 4.7885 1.11286 4.91116C0.996202 5.16171 0.88733 5.43153 0.778664 5.73272C0.698047 5.95539 0.625859 6.18101 0.562254 6.40912C0.497361 6.64224 0.439645 6.88612 0.388182 7.1499C0.336719 7.41367 0.291818 7.69733 0.252349 8.01103C0.209818 8.35489 0.17584 8.69975 0.150449 9.0453C0.121744 9.42523 0.0979609 9.84329 0.0784829 10.3086L0.0323511 11.8558L0.00754226 13.7417L0.000366211 16.0214L0.0213819 19.3364L0.0869917 21.8481L0.137532 22.8291L0.200682 23.6421C0.220925 23.8612 0.246253 24.0798 0.276646 24.2978C0.304325 24.4913 0.334054 24.6607 0.366039 24.8073C0.430939 25.1053 0.507681 25.4007 0.596084 25.6926C0.680728 25.9721 0.777527 26.2478 0.886203 26.5189C0.993024 26.7844 1.10989 27.0405 1.23701 27.2869C1.36413 27.5334 1.5015 27.7702 1.64912 27.9977C1.79675 28.2251 1.95462 28.4433 2.12315 28.6521C2.2915 28.861 2.47056 29.0609 2.65962 29.2512C2.84896 29.4419 3.04866 29.6233 3.25913 29.7958C3.47208 29.9702 3.69344 30.1341 3.9224 30.2868C4.13492 30.4289 4.34518 30.559 4.55698 30.6784C4.76877 30.7979 4.98241 30.9062 5.202 31.0047C5.42159 31.1033 5.64671 31.1919 5.88189 31.2717C6.11706 31.3514 6.36207 31.4224 6.62102 31.4853C6.87998 31.5483 7.1541 31.6035 7.44422 31.6517C7.73434 31.6999 8.04445 31.7412 8.37578 31.7768C8.70711 31.8124 9.06058 31.8418 9.4404 31.8664C9.82022 31.891 10.2262 31.9107 10.6624 31.9265C11.3362 31.9509 12.3563 31.9651 13.5325 31.9705L17.3405 31.9629L20.9463 31.9123L22.3174 31.8738L23.2106 31.8278C23.4023 31.8123 23.5899 31.7938 23.7709 31.7722C23.952 31.7505 24.1306 31.7258 24.3044 31.6977C24.4783 31.6697 24.6483 31.6383 24.8153 31.6034C24.9803 31.5691 25.1445 31.5307 25.3078 31.4883C25.4693 31.4473 25.6286 31.4007 25.7863 31.3511C25.944 31.3016 26.1 31.2481 26.2551 31.1907C26.4111 31.1329 26.5657 31.0714 26.7187 31.0061C26.8728 30.9405 27.0266 30.8703 27.181 30.7959C27.4181 30.6817 27.609 30.5865 27.7766 30.4935C27.9343 30.407 28.0861 30.3103 28.2312 30.204C28.3743 30.0986 28.5166 29.9787 28.6806 29.8276C28.8446 29.6764 29.0305 29.4944 29.2606 29.2641C29.4629 29.062 29.6335 28.8863 29.7806 28.7264C29.9277 28.5666 30.0517 28.4228 30.1603 28.2842C30.2639 28.1527 30.3604 28.0157 30.4494 27.8739C30.5362 27.7355 30.6162 27.5918 30.6977 27.4324C30.8203 27.1925 30.9294 26.9703 31.0271 26.756C31.122 26.5494 31.2086 26.3392 31.2869 26.1257C31.3639 25.914 31.4307 25.6986 31.4869 25.4804C31.5447 25.2559 31.5945 25.0189 31.6376 24.7589C31.6806 24.4989 31.717 24.216 31.7486 23.9C31.7802 23.5841 31.807 23.2349 31.8306 22.8426L31.8931 21.5255L31.9469 19.8877L31.9852 18.0629L32 16.1549L31.9657 12.4074L31.9199 10.7289L31.8574 9.28775L31.7795 8.16418C31.7512 7.85151 31.7206 7.60527 31.6882 7.43878C31.6524 7.25483 31.6123 7.07172 31.5681 6.88961C31.525 6.7124 31.4777 6.53626 31.4261 6.36135C31.3758 6.19093 31.3212 6.02183 31.2623 5.8542C31.204 5.68864 31.1423 5.52656 31.0777 5.36797C31.0131 5.20938 30.9432 5.05448 30.8704 4.90286C30.7977 4.75124 30.7214 4.60331 30.6413 4.45876C30.5613 4.31421 30.4778 4.17325 30.3906 4.03578C30.3033 3.89831 30.2125 3.76432 30.1179 3.63392C30.0238 3.50394 29.9257 3.37693 29.8237 3.25308C29.7222 3.1299 29.6168 3.00997 29.5077 2.89345C29.3988 2.77708 29.2862 2.66419 29.1701 2.55495C29.054 2.44566 28.9343 2.33987 28.8109 2.23756C28.687 2.13491 28.56 2.03614 28.43 1.94139C28.2986 1.84567 28.1643 1.75398 28.0273 1.66645C27.8884 1.57766 27.747 1.49301 27.6031 1.41262C27.4567 1.33087 27.308 1.25334 27.1571 1.18011C26.9068 1.05842 26.6753 0.950477 26.448 0.854727C26.2246 0.759701 25.9969 0.675304 25.7655 0.601821C25.5328 0.528522 25.2905 0.465681 25.024 0.41145C24.7575 0.357219 24.4668 0.31201 24.1378 0.273566C23.8089 0.235123 23.4416 0.204062 23.0215 0.178228C22.6013 0.152394 22.1288 0.132094 21.5893 0.115692L19.7557 0.0746861L17.4351 0.0473146L14.4634 0.0290659L14.4623 0.0288626ZM16.0057 2.84824L20.2912 2.87264L21.9078 2.90381C22.353 2.91631 22.6928 2.93097 22.892 2.94789C23.1513 2.96972 23.3984 2.9971 23.6347 3.0299C23.8615 3.06121 24.0871 3.10016 24.3113 3.14666C24.5266 3.19177 24.7319 3.24303 24.9284 3.30085C25.125 3.35867 25.3127 3.42346 25.4928 3.49511C25.6729 3.56677 25.8451 3.64561 26.0109 3.73193C26.1753 3.81759 26.3351 3.91187 26.4897 4.01436C26.6434 4.11636 26.7917 4.22626 26.9356 4.34466C27.0795 4.46307 27.2191 4.58998 27.3553 4.72571C27.4991 4.86892 27.6318 5.01481 27.7541 5.1653C27.8759 5.31486 27.9887 5.47161 28.0917 5.63472C28.1958 5.80014 28.2897 5.97184 28.3728 6.14883C28.4576 6.32926 28.5339 6.51994 28.6024 6.72261C28.6709 6.92528 28.7319 7.14067 28.7859 7.37082C28.8425 7.61482 28.8899 7.86086 28.928 8.10842C28.969 8.37086 29.004 8.65072 29.0338 8.95038C29.0635 9.25003 29.0881 9.56957 29.1084 9.91146C29.1246 10.1857 29.1388 10.5476 29.1507 10.975L29.1808 12.4322L29.2037 16.0018L29.1776 19.568L29.1462 21.0211L29.1031 22.0779C29.0731 22.5727 29.0416 22.9887 29.0038 23.3508C28.9849 23.5319 28.9644 23.6994 28.9416 23.8565C28.9203 24.005 28.895 24.1529 28.8659 24.3C28.8392 24.4342 28.8083 24.5676 28.7731 24.6998C28.7394 24.826 28.7015 24.9511 28.6594 25.0747C28.617 25.199 28.5709 25.3219 28.5211 25.4434C28.4685 25.5716 28.4129 25.6987 28.3545 25.8244C28.3025 25.9367 28.2479 26.0459 28.1901 26.1522C28.1329 26.2574 28.0722 26.3607 28.008 26.4618C27.9444 26.5619 27.8778 26.6592 27.8081 26.7534C27.7388 26.8473 27.6661 26.9387 27.5902 27.0273C27.5145 27.1156 27.4356 27.2011 27.3537 27.2836C27.2716 27.3662 27.1866 27.4458 27.0984 27.5227C27.0102 27.5996 26.9188 27.6734 26.8242 27.7445C26.7295 27.8157 26.6316 27.884 26.5305 27.9494C26.4293 28.0148 26.3249 28.0775 26.2172 28.1374C26.1094 28.1973 25.9983 28.2545 25.884 28.3089C25.7677 28.3641 25.6498 28.4159 25.5304 28.4641C25.407 28.5139 25.2822 28.5602 25.1562 28.603C24.8999 28.6903 24.6296 28.767 24.345 28.8332C24.0484 28.9016 23.7491 28.9577 23.4478 29.0011C23.332 29.018 23.0657 29.0339 22.6844 29.0486L21.2311 29.089L17.111 29.1425L12.7986 29.1493L11.1051 29.1313L10.0054 29.097L9.19447 29.04C8.94269 29.0188 8.70854 28.9952 8.48916 28.9685C8.26978 28.9417 8.06547 28.9119 7.87325 28.8783C7.6911 28.8468 7.51005 28.8092 7.33043 28.7655C7.16665 28.7257 7.00454 28.6792 6.84451 28.6263C6.69022 28.575 6.5427 28.5186 6.39918 28.4566C6.25566 28.3946 6.11624 28.3266 5.97815 28.2524C5.84006 28.1782 5.70341 28.0976 5.56522 28.0098C5.46096 27.9435 5.36018 27.8765 5.26321 27.8054C5.16622 27.7344 5.07253 27.6636 4.98231 27.5893C4.8921 27.5151 4.80547 27.4386 4.72192 27.3599C4.63893 27.2816 4.55878 27.2002 4.48163 27.1161C4.40474 27.0323 4.33124 26.9459 4.2607 26.8566C4.1899 26.7668 4.12243 26.6745 4.05844 26.5798C3.9935 26.4836 3.93205 26.3851 3.87422 26.2845C3.81579 26.183 3.76022 26.0781 3.70743 25.9698C3.65375 25.8595 3.60366 25.7474 3.55724 25.6339C3.51009 25.5182 3.46539 25.3989 3.42336 25.2757C3.3393 25.0291 3.26548 24.7667 3.20131 24.4868C3.13714 24.2069 3.08239 23.9096 3.03606 23.5929C2.98972 23.2761 2.9524 22.9403 2.92267 22.5833C2.90073 22.3203 2.88331 21.9108 2.86998 21.3941L2.8421 19.5565L2.85235 14.8721L2.93303 10.3958L2.99454 8.81875L3.02939 8.29745C3.04149 8.15824 3.054 8.05511 3.06681 7.99319C3.10905 7.78949 3.15159 7.59994 3.19557 7.42248C3.23665 7.25508 3.28236 7.08883 3.33263 6.92395C3.38041 6.76833 3.43074 6.62256 3.48456 6.48447C3.53646 6.3507 3.5943 6.21931 3.65791 6.0907C3.72004 5.96564 3.78678 5.8459 3.85925 5.72934C3.93173 5.61278 4.00995 5.4997 4.09525 5.38724C4.18054 5.27478 4.27239 5.16376 4.37234 5.0512C4.4723 4.93864 4.58025 4.82495 4.69732 4.70777C4.83376 4.57055 4.97583 4.43905 5.12317 4.3136C5.26229 4.19524 5.40737 4.08407 5.55783 3.98053C5.70576 3.87801 5.85749 3.78677 6.01546 3.70291C6.17344 3.61906 6.33767 3.5433 6.51041 3.47513C6.68315 3.40695 6.8646 3.34596 7.05682 3.2906C7.25875 3.23395 7.46293 3.18563 7.66883 3.14574C7.88535 3.1033 8.11529 3.06629 8.36081 3.034C8.60634 3.00171 8.86755 2.97382 9.1468 2.94963C9.34158 2.93282 9.67721 2.91785 10.1192 2.90524L11.7276 2.87346L16.0064 2.84732L16.0057 2.84824Z" fill="#2A2C3D"/>
</g>
</g>
<defs>
<clipPath id="clip0_1_216">
<rect width="32" height="32" fill="white"/>
</clipPath>
</defs>
</svg>
