<svg width="49" height="48" viewBox="0 0 49 48" fill="none" xmlns="http://www.w3.org/2000/svg">
<g id="PenNib">
<path id="Vector" d="M22.25 30C24.3211 30 26 28.3211 26 26.25C26 24.1789 24.3211 22.5 22.25 22.5C20.1789 22.5 18.5 24.1789 18.5 26.25C18.5 28.3211 20.1789 30 22.25 30Z" stroke="#2F6B4F" stroke-width="2" stroke-linecap="round" stroke-linejoin="round"/>
<path id="Vector_2" d="M6.5 41.9999L19.6063 28.8937" stroke="#2F6B4F" stroke-width="2" stroke-linecap="round" stroke-linejoin="round"/>
<path id="Vector_3" d="M6.5 42L32.6562 37.65C32.9144 37.6059 33.1563 37.4942 33.3572 37.3263C33.5581 37.1583 33.7109 36.94 33.8 36.6937L38 25.5L23 10.5L11.8062 14.7C11.5596 14.794 11.3417 14.9506 11.174 15.1544C11.0063 15.3583 10.8946 15.6023 10.85 15.8625L6.5 42Z" stroke="#2F6B4F" stroke-width="2" stroke-linecap="round" stroke-linejoin="round"/>
<path id="Vector_4" d="M38 25.5L42.9312 20.5688C43.073 20.4292 43.1855 20.2628 43.2624 20.0793C43.3392 19.8959 43.3787 19.6989 43.3787 19.5C43.3787 19.3011 43.3392 19.1042 43.2624 18.9207C43.1855 18.7372 43.073 18.5708 42.9312 18.4313L30.0687 5.56877C29.9292 5.42704 29.7628 5.31449 29.5793 5.23767C29.3958 5.16084 29.1989 5.12128 29 5.12128C28.8011 5.12128 28.6042 5.16084 28.4207 5.23767C28.2372 5.31449 28.0708 5.42704 27.9313 5.56877L23 10.5" stroke="#2F6B4F" stroke-width="2" stroke-linecap="round" stroke-linejoin="round"/>
</g>
</svg>
