<svg width="32" height="32" viewBox="0 0 32 32" xmlns="http://www.w3.org/2000/svg">
<g clip-path="url(#clip0_1_211)">
<path d="M16.0003 31.9997C24.8368 31.9997 32.0002 24.8363 32.0002 15.9999C32.0002 7.16338 24.8368 0 16.0003 0C7.16387 0 0.000488281 7.16338 0.000488281 15.9999C0.000488281 24.8363 7.16387 31.9997 16.0003 31.9997Z"/>
<path d="M25.8007 11.4987C25.1151 11.8028 24.3775 12.0084 23.604 12.1003C24.3938 11.6271 24.9998 10.8784 25.2859 9.98483C24.5469 10.4232 23.7281 10.7412 22.8573 10.9126C22.1597 10.1696 21.1657 9.70532 20.0651 9.70532C17.9534 9.70532 16.2407 11.418 16.2407 13.5297C16.2407 13.8295 16.2746 14.1213 16.3402 14.4013C13.1618 14.2419 10.3436 12.7194 8.45722 10.4049C8.12809 10.9697 7.93928 11.6271 7.93928 12.3279C7.93928 13.6544 8.61494 14.8255 9.64057 15.5111C9.01396 15.4914 8.42385 15.3194 7.90847 15.0322C7.90819 15.0485 7.90819 15.0648 7.90819 15.0807C7.90819 16.9338 9.22701 18.4793 10.9762 18.8304C10.6556 18.9183 10.3171 18.9647 9.96885 18.9647C9.72185 18.9647 9.48256 18.9411 9.24926 18.8966C9.73583 20.4156 11.1479 21.5214 12.8218 21.5525C11.5127 22.5784 9.86389 23.1896 8.07161 23.1896C7.76358 23.1896 7.45841 23.1716 7.15979 23.136C8.85139 24.2215 10.8621 24.8544 13.0218 24.8544C20.0562 24.8544 23.9032 19.0269 23.9032 13.9727C23.9032 13.807 23.8995 13.6418 23.8921 13.4781C24.6399 12.9391 25.2882 12.2657 25.8007 11.4987Z" fill="#F1F2F2"/>
</g>
<defs>
<clipPath id="clip0_1_211">
<rect width="32" height="32" fill="white"/>
</clipPath>
</defs>
</svg>
