<svg width="118" height="17" viewBox="0 0 118 17" fill="none" xmlns="http://www.w3.org/2000/svg">
<path d="M0.189453 1.72266H4.4375C6.27995 1.72266 7.66992 1.98958 8.60742 2.52344C9.54492 3.05729 10.0137 3.97852 10.0137 5.28711C10.0137 5.83398 9.91602 6.32878 9.7207 6.77148C9.5319 7.20768 9.25521 7.56901 8.89062 7.85547C8.52604 8.13542 8.07682 8.32422 7.54297 8.42188V8.51953C8.09635 8.61719 8.58789 8.78971 9.01758 9.03711C9.45378 9.28451 9.79557 9.63932 10.043 10.1016C10.2969 10.5638 10.4238 11.1628 10.4238 11.8984C10.4238 12.7708 10.2155 13.513 9.79883 14.125C9.38867 14.737 8.79948 15.2025 8.03125 15.5215C7.26953 15.8405 6.36458 16 5.31641 16H0.189453V1.72266ZM2.5332 7.61133H4.7793C5.84049 7.61133 6.57617 7.4388 6.98633 7.09375C7.39648 6.7487 7.60156 6.24414 7.60156 5.58008C7.60156 4.90299 7.35742 4.41471 6.86914 4.11523C6.38737 3.81576 5.61914 3.66602 4.56445 3.66602H2.5332V7.61133ZM2.5332 9.50586V14.0371H5.00391C6.09766 14.0371 6.86589 13.8255 7.30859 13.4023C7.7513 12.9792 7.97266 12.4062 7.97266 11.6836C7.97266 11.2409 7.87174 10.8568 7.66992 10.5312C7.47461 10.2057 7.15234 9.95508 6.70312 9.7793C6.25391 9.59701 5.64844 9.50586 4.88672 9.50586H2.5332ZM22.5625 5.18945V16H20.7559L20.4434 14.5449H20.3164C20.0885 14.916 19.7988 15.2253 19.4473 15.4727C19.0957 15.7135 18.7051 15.8926 18.2754 16.0098C17.8457 16.1335 17.3932 16.1953 16.918 16.1953C16.1042 16.1953 15.4076 16.0586 14.8281 15.7852C14.2552 15.5052 13.8158 15.0755 13.5098 14.4961C13.2038 13.9167 13.0508 13.168 13.0508 12.25V5.18945H15.3555V11.8203C15.3555 12.6602 15.5247 13.2884 15.8633 13.7051C16.2083 14.1217 16.7422 14.3301 17.4648 14.3301C18.1615 14.3301 18.7148 14.1868 19.125 13.9004C19.5352 13.6139 19.8249 13.1908 19.9941 12.6309C20.1699 12.071 20.2578 11.3841 20.2578 10.5703V5.18945H22.5625ZM28.1484 0.804688V4.4668C28.1484 4.88997 28.1354 5.30664 28.1094 5.7168C28.0898 6.12044 28.0703 6.4362 28.0508 6.66406H28.1484C28.4414 6.19531 28.8483 5.80143 29.3691 5.48242C29.8965 5.1569 30.5703 4.99414 31.3906 4.99414C32.6732 4.99414 33.7051 5.46615 34.4863 6.41016C35.2676 7.34766 35.6582 8.73763 35.6582 10.5801C35.6582 11.804 35.4792 12.8327 35.1211 13.666C34.763 14.4993 34.2585 15.1309 33.6074 15.5605C32.9629 15.9837 32.2044 16.1953 31.332 16.1953C30.5117 16.1953 29.8477 16.0456 29.3398 15.7461C28.8385 15.4401 28.4447 15.0853 28.1582 14.6816H27.9922L27.5723 16H25.8535V0.804688H28.1484ZM30.7852 6.85938C30.1341 6.85938 29.6165 6.98958 29.2324 7.25C28.8548 7.51042 28.5814 7.90104 28.4121 8.42188C28.2428 8.9362 28.1549 9.59049 28.1484 10.3848V10.5898C28.1484 11.7943 28.3372 12.7155 28.7148 13.3535C29.099 13.9915 29.7956 14.3105 30.8047 14.3105C31.6055 14.3105 32.2207 13.9883 32.6504 13.3438C33.0801 12.6927 33.2949 11.7617 33.2949 10.5508C33.2949 9.32682 33.0801 8.4056 32.6504 7.78711C32.2272 7.16862 31.6055 6.85938 30.7852 6.85938ZM40.6094 0.804688V4.4668C40.6094 4.88997 40.5964 5.30664 40.5703 5.7168C40.5508 6.12044 40.5312 6.4362 40.5117 6.66406H40.6094C40.9023 6.19531 41.3092 5.80143 41.8301 5.48242C42.3574 5.1569 43.0312 4.99414 43.8516 4.99414C45.1341 4.99414 46.166 5.46615 46.9473 6.41016C47.7285 7.34766 48.1191 8.73763 48.1191 10.5801C48.1191 11.804 47.9401 12.8327 47.582 13.666C47.224 14.4993 46.7194 15.1309 46.0684 15.5605C45.4238 15.9837 44.6654 16.1953 43.793 16.1953C42.9727 16.1953 42.3086 16.0456 41.8008 15.7461C41.2995 15.4401 40.9056 15.0853 40.6191 14.6816H40.4531L40.0332 16H38.3145V0.804688H40.6094ZM43.2461 6.85938C42.5951 6.85938 42.0775 6.98958 41.6934 7.25C41.3158 7.51042 41.0423 7.90104 40.873 8.42188C40.7038 8.9362 40.6159 9.59049 40.6094 10.3848V10.5898C40.6094 11.7943 40.7982 12.7155 41.1758 13.3535C41.5599 13.9915 42.2565 14.3105 43.2656 14.3105C44.0664 14.3105 44.6816 13.9883 45.1113 13.3438C45.541 12.6927 45.7559 11.7617 45.7559 10.5508C45.7559 9.32682 45.541 8.4056 45.1113 7.78711C44.6882 7.16862 44.0664 6.85938 43.2461 6.85938ZM53.0801 16H50.7754V0.804688H53.0801V16ZM60.668 4.98438C61.6315 4.98438 62.4583 5.18294 63.1484 5.58008C63.8385 5.97721 64.3691 6.54036 64.7402 7.26953C65.1113 7.9987 65.2969 8.87109 65.2969 9.88672V11.1172H58.0801C58.1061 12.1654 58.3861 12.9727 58.9199 13.5391C59.4603 14.1055 60.2155 14.3887 61.1855 14.3887C61.8757 14.3887 62.4941 14.3236 63.041 14.1934C63.5944 14.0566 64.1641 13.8581 64.75 13.5977V15.4629C64.2096 15.7168 63.6595 15.9023 63.0996 16.0195C62.5397 16.1367 61.8691 16.1953 61.0879 16.1953C60.0267 16.1953 59.0924 15.9902 58.2852 15.5801C57.4844 15.1634 56.8561 14.5449 56.4004 13.7246C55.9512 12.9043 55.7266 11.8854 55.7266 10.668C55.7266 9.45703 55.9316 8.42839 56.3418 7.58203C56.752 6.73568 57.3281 6.09115 58.0703 5.64844C58.8125 5.20573 59.6784 4.98438 60.668 4.98438ZM60.668 6.71289C59.9453 6.71289 59.3594 6.94727 58.9102 7.41602C58.4674 7.88477 58.207 8.57161 58.1289 9.47656H63.0508C63.0443 8.9362 62.9531 8.45768 62.7773 8.04102C62.6081 7.62435 62.3477 7.29883 61.9961 7.06445C61.651 6.83008 61.2083 6.71289 60.668 6.71289ZM73.3145 1.72266H77.5625C79.4049 1.72266 80.7949 1.98958 81.7324 2.52344C82.6699 3.05729 83.1387 3.97852 83.1387 5.28711C83.1387 5.83398 83.041 6.32878 82.8457 6.77148C82.6569 7.20768 82.3802 7.56901 82.0156 7.85547C81.651 8.13542 81.2018 8.32422 80.668 8.42188V8.51953C81.2214 8.61719 81.7129 8.78971 82.1426 9.03711C82.5788 9.28451 82.9206 9.63932 83.168 10.1016C83.4219 10.5638 83.5488 11.1628 83.5488 11.8984C83.5488 12.7708 83.3405 13.513 82.9238 14.125C82.5137 14.737 81.9245 15.2025 81.1562 15.5215C80.3945 15.8405 79.4896 16 78.4414 16H73.3145V1.72266ZM75.6582 7.61133H77.9043C78.9655 7.61133 79.7012 7.4388 80.1113 7.09375C80.5215 6.7487 80.7266 6.24414 80.7266 5.58008C80.7266 4.90299 80.4824 4.41471 79.9941 4.11523C79.5124 3.81576 78.7441 3.66602 77.6895 3.66602H75.6582V7.61133ZM75.6582 9.50586V14.0371H78.1289C79.2227 14.0371 79.9909 13.8255 80.4336 13.4023C80.8763 12.9792 81.0977 12.4062 81.0977 11.6836C81.0977 11.2409 80.9967 10.8568 80.7949 10.5312C80.5996 10.2057 80.2773 9.95508 79.8281 9.7793C79.3789 9.59701 78.7734 9.50586 78.0117 9.50586H75.6582ZM90.502 4.98438C91.8691 4.98438 92.901 5.28711 93.5977 5.89258C94.3008 6.49805 94.6523 7.44206 94.6523 8.72461V16H93.0215L92.582 14.4668H92.5039C92.1979 14.8574 91.8822 15.1797 91.5566 15.4336C91.2311 15.6875 90.8535 15.8763 90.4238 16C90.0007 16.1302 89.4831 16.1953 88.8711 16.1953C88.2266 16.1953 87.6504 16.0781 87.1426 15.8438C86.6348 15.6029 86.2344 15.2383 85.9414 14.75C85.6484 14.2617 85.502 13.6432 85.502 12.8945C85.502 11.7812 85.9154 10.9447 86.7422 10.3848C87.5755 9.82487 88.832 9.51562 90.5117 9.45703L92.3867 9.38867V8.82227C92.3867 8.07357 92.2109 7.53971 91.8594 7.2207C91.5143 6.90169 91.026 6.74219 90.3945 6.74219C89.8542 6.74219 89.3301 6.82031 88.8223 6.97656C88.3145 7.13281 87.8197 7.32487 87.3379 7.55273L86.5957 5.93164C87.123 5.65169 87.722 5.42383 88.3926 5.24805C89.0697 5.07227 89.7728 4.98438 90.502 4.98438ZM92.377 10.834L90.9805 10.8828C89.8346 10.9219 89.0306 11.1172 88.5684 11.4688C88.1061 11.8203 87.875 12.3021 87.875 12.9141C87.875 13.4479 88.0345 13.8385 88.3535 14.0859C88.6725 14.3268 89.0924 14.4473 89.6133 14.4473C90.4076 14.4473 91.0651 14.2227 91.5859 13.7734C92.1133 13.3177 92.377 12.6504 92.377 11.7715V10.834ZM105.131 12.9141C105.131 13.6237 104.958 14.2227 104.613 14.7109C104.268 15.1992 103.764 15.5703 103.1 15.8242C102.442 16.0716 101.635 16.1953 100.678 16.1953C99.9225 16.1953 99.2715 16.14 98.7246 16.0293C98.1842 15.9251 97.6732 15.7624 97.1914 15.541V13.5586C97.7057 13.7995 98.2819 14.0078 98.9199 14.1836C99.5645 14.3594 100.173 14.4473 100.746 14.4473C101.501 14.4473 102.045 14.3301 102.377 14.0957C102.709 13.8548 102.875 13.5358 102.875 13.1387C102.875 12.9043 102.807 12.696 102.67 12.5137C102.54 12.3249 102.292 12.1328 101.928 11.9375C101.57 11.7357 101.042 11.4948 100.346 11.2148C99.6621 10.9414 99.0859 10.668 98.6172 10.3945C98.1484 10.1211 97.7936 9.79232 97.5527 9.4082C97.3118 9.01758 97.1914 8.51953 97.1914 7.91406C97.1914 6.95703 97.569 6.23112 98.3242 5.73633C99.0859 5.23503 100.092 4.98438 101.342 4.98438C102.006 4.98438 102.631 5.05273 103.217 5.18945C103.809 5.31966 104.389 5.51172 104.955 5.76562L104.232 7.49414C103.744 7.2793 103.253 7.10352 102.758 6.9668C102.27 6.82357 101.771 6.75195 101.264 6.75195C100.671 6.75195 100.219 6.8431 99.9062 7.02539C99.6003 7.20768 99.4473 7.4681 99.4473 7.80664C99.4473 8.06055 99.5221 8.27539 99.6719 8.45117C99.8216 8.62695 100.079 8.80273 100.443 8.97852C100.814 9.1543 101.329 9.3724 101.986 9.63281C102.631 9.88021 103.188 10.1406 103.656 10.4141C104.132 10.681 104.496 11.0098 104.75 11.4004C105.004 11.791 105.131 12.2956 105.131 12.9141ZM109.906 0.804688V4.62305C109.906 5.02018 109.893 5.40755 109.867 5.78516C109.848 6.16276 109.825 6.45573 109.799 6.66406H109.926C110.154 6.28646 110.434 5.97721 110.766 5.73633C111.098 5.48893 111.469 5.30339 111.879 5.17969C112.296 5.05599 112.738 4.99414 113.207 4.99414C114.034 4.99414 114.737 5.13411 115.316 5.41406C115.896 5.6875 116.339 6.11393 116.645 6.69336C116.957 7.27279 117.113 8.02474 117.113 8.94922V16H114.818V9.37891C114.818 8.53906 114.646 7.91081 114.301 7.49414C113.956 7.07096 113.422 6.85938 112.699 6.85938C112.003 6.85938 111.449 7.00586 111.039 7.29883C110.635 7.58529 110.346 8.01172 110.17 8.57812C109.994 9.13802 109.906 9.82161 109.906 10.6289V16H107.611V0.804688H109.906Z" fill="#2A2C3D"/>
</svg>
